<?xml version="1.0"?>
<svg xmlns="http://www.w3.org/2000/svg" xmlns:xlink="http://www.w3.org/1999/xlink" xmlns:svgjs="http://svgjs.com/svgjs" version="1.1" width="512" height="512" x="0" y="0" viewBox="0 0 512 512" style="enable-background:new 0 0 512 512" xml:space="preserve" class=""><g><path xmlns="http://www.w3.org/2000/svg" d="m416 512h-320c-53.023438 0-96-42.976562-96-96v-320c0-53.023438 42.976562-96 96-96h320c53.023438 0 96 42.976562 96 96v320c0 53.023438-42.976562 96-96 96zm0 0" fill="#fff9dd" data-original="#e3f8fa" style="" class=""/><path xmlns="http://www.w3.org/2000/svg" d="m256 128c-70.574219 0-128 57.425781-128 128s57.425781 128 128 128 128-57.425781 128-128-57.425781-128-128-128zm56 138.671875h-45.328125v45.328125c0 5.886719-4.785156 10.671875-10.671875 10.671875s-10.671875-4.785156-10.671875-10.671875v-45.328125h-45.328125c-5.886719 0-10.671875-4.785156-10.671875-10.671875s4.785156-10.671875 10.671875-10.671875h45.328125v-45.328125c0-5.886719 4.785156-10.671875 10.671875-10.671875s10.671875 4.785156 10.671875 10.671875v45.328125h45.328125c5.886719 0 10.671875 4.785156 10.671875 10.671875s-4.785156 10.671875-10.671875 10.671875zm0 0" fill="#ffd200" data-original="#26c6da" style="" class=""/></g></svg>
