<?xml version="1.0" standalone="no"?>
<!DOCTYPE svg PUBLIC "-//W3C//DTD SVG 20010904//EN"
 "http://www.w3.org/TR/2001/REC-SVG-20010904/DTD/svg10.dtd">
<svg version="1.0" xmlns="http://www.w3.org/2000/svg"
 width="64.000000pt" height="98.000000pt" viewBox="0 0 64.000000 98.000000"
 preserveAspectRatio="xMidYMid meet">

<g transform="translate(0.000000,98.000000) scale(0.100000,-0.100000)"
fill="#000000" stroke="none">
<path d="M0 490 l0 -490 320 0 320 0 0 490 0 490 -320 0 -320 0 0 -490z m610
0 l0 -460 -290 0 -290 0 0 460 0 460 290 0 290 0 0 -460z"/>
<path d="M90 810 l0 -70 235 0 235 0 0 70 0 70 -235 0 -235 0 0 -70z m440 0
l0 -40 -205 0 -205 0 0 40 0 40 205 0 205 0 0 -40z"/>
<path d="M90 600 l0 -70 235 0 235 0 0 70 0 70 -235 0 -235 0 0 -70z m440 0
l0 -40 -205 0 -205 0 0 40 0 40 205 0 205 0 0 -40z"/>
<path d="M60 490 c0 -18 7 -20 55 -20 48 0 55 2 55 20 0 18 -7 20 -55 20 -48
0 -55 -2 -55 -20z"/>
<path d="M90 390 l0 -70 235 0 235 0 0 70 0 70 -235 0 -235 0 0 -70z m440 0
l0 -40 -205 0 -205 0 0 40 0 40 205 0 205 0 0 -40z"/>
<path d="M90 180 l0 -70 235 0 235 0 0 70 0 70 -235 0 -235 0 0 -70z m440 0
l0 -40 -205 0 -205 0 0 40 0 40 205 0 205 0 0 -40z"/>
</g>
</svg>
