<?xml version="1.0" standalone="no"?>
<!DOCTYPE svg PUBLIC "-//W3C//DTD SVG 20010904//EN"
 "http://www.w3.org/TR/2001/REC-SVG-20010904/DTD/svg10.dtd">
<svg version="1.0" xmlns="http://www.w3.org/2000/svg"
 width="330.000000pt" height="100.000000pt" viewBox="0 0 330.000000 100.000000"
 preserveAspectRatio="xMidYMid meet">

<g transform="translate(0.000000,100.000000) scale(0.100000,-0.100000)"
fill="#000000" stroke="none">
<path d="M0 510 l0 -490 320 0 320 0 0 490 0 490 -320 0 -320 0 0 -490z m610
0 l0 -460 -290 0 -290 0 0 460 0 460 290 0 290 0 0 -460z"/>
<path d="M90 830 l0 -70 235 0 235 0 0 70 0 70 -235 0 -235 0 0 -70z m440 0
l0 -40 -205 0 -205 0 0 40 0 40 205 0 205 0 0 -40z"/>
<path d="M90 620 l0 -70 235 0 235 0 0 70 0 70 -235 0 -235 0 0 -70z m440 0
l0 -40 -205 0 -205 0 0 40 0 40 205 0 205 0 0 -40z"/>
<path d="M60 510 c0 -18 7 -20 55 -20 48 0 55 2 55 20 0 18 -7 20 -55 20 -48
0 -55 -2 -55 -20z"/>
<path d="M90 410 l0 -70 235 0 235 0 0 70 0 70 -235 0 -235 0 0 -70z m440 0
l0 -40 -205 0 -205 0 0 40 0 40 205 0 205 0 0 -40z"/>
<path d="M90 200 l0 -70 235 0 235 0 0 70 0 70 -235 0 -235 0 0 -70z m440 0
l0 -40 -205 0 -205 0 0 40 0 40 205 0 205 0 0 -40z"/>
<path d="M760 700 c0 -67 3 -80 16 -80 13 0 15 9 12 50 -2 42 -1 48 10 33 6
-9 12 -22 12 -29 0 -26 20 -24 34 3 l15 28 1 -42 c0 -31 4 -43 15 -43 12 0 15
16 15 80 0 93 -16 107 -44 38 l-18 -43 -21 43 c-33 66 -47 55 -47 -38z"/>
<path d="M910 719 c0 -76 12 -99 51 -99 36 0 49 27 49 106 0 41 -4 54 -15 54
-12 0 -15 -14 -15 -63 0 -68 -4 -79 -26 -70 -10 4 -14 23 -14 69 0 50 -3 64
-15 64 -12 0 -15 -13 -15 -61z"/>
<path d="M1030 700 l0 -80 40 0 c29 0 40 4 40 15 0 9 -9 15 -25 15 -18 0 -25
5 -25 20 0 13 7 20 20 20 11 0 20 5 20 10 0 6 -9 10 -20 10 -15 0 -20 7 -20
25 0 20 5 25 25 25 14 0 25 5 25 10 0 6 -18 10 -40 10 l-40 0 0 -80z"/>
<path d="M1130 700 l0 -80 33 0 c18 0 38 5 45 12 15 15 16 55 1 64 -8 4 -8 9
0 17 16 16 13 54 -5 61 -9 3 -29 6 -45 6 l-29 0 0 -80z m58 38 c-5 -32 -28
-35 -28 -4 0 17 5 26 16 26 10 0 14 -7 12 -22z m7 -58 c7 -12 -12 -40 -26 -40
-5 0 -9 11 -9 25 0 25 23 35 35 15z"/>
<path d="M1240 700 l0 -80 40 0 c29 0 40 4 40 15 0 9 -9 15 -25 15 -24 0 -25
2 -25 65 0 51 -3 65 -15 65 -12 0 -15 -16 -15 -80z"/>
<path d="M1340 700 l0 -80 40 0 c29 0 40 4 40 15 0 9 -9 15 -25 15 -18 0 -25
5 -25 20 0 13 7 20 20 20 11 0 20 5 20 10 0 6 -9 10 -20 10 -15 0 -20 7 -20
25 0 20 5 25 25 25 14 0 25 5 25 10 0 6 -18 10 -40 10 l-40 0 0 -80z"/>
<path d="M1442 763 c-12 -24 -5 -44 25 -70 31 -25 25 -56 -9 -51 -11 2 -23 -3
-25 -9 -3 -9 6 -13 29 -13 64 0 77 44 27 91 -32 30 -31 54 2 46 12 -3 19 0 19
9 0 21 -57 18 -68 -3z"/>
<path d="M1590 700 l0 -80 41 0 c46 0 51 23 6 28 -37 4 -38 42 -2 42 31 0 33
17 3 22 -15 2 -23 10 -23 23 0 13 8 21 23 23 35 5 26 22 -13 22 l-35 0 0 -80z"/>
<path d="M1690 700 l0 -80 40 0 c29 0 40 4 40 15 0 10 -10 15 -30 15 l-30 0 0
65 c0 37 -4 65 -10 65 -6 0 -10 -33 -10 -80z"/>
<path d="M901 513 c-11 -38 -45 -158 -77 -268 -31 -110 -59 -206 -61 -212 -4
-9 9 -13 45 -13 46 0 50 2 56 28 4 15 12 44 17 65 l10 38 67 -3 67 -3 16 -60
16 -60 52 -3 c47 -3 52 -1 47 15 -3 10 -37 128 -76 263 -39 135 -73 253 -76
263 -4 12 -16 17 -44 17 l-39 0 -20 -67z m86 -195 l20 -88 -49 0 c-43 0 -49 2
-44 17 4 9 14 56 24 105 19 97 20 96 49 -34z"/>
<path d="M1498 508 c-36 -9 -38 -12 -38 -49 0 -35 -3 -39 -25 -39 -22 0 -25
-4 -25 -40 0 -36 3 -40 25 -40 l25 0 0 -130 c0 -76 5 -139 11 -154 14 -30 65
-50 105 -41 61 14 60 13 56 50 -4 32 -7 35 -37 35 -21 0 -35 6 -39 16 -3 9 -6
63 -6 120 l0 104 40 0 40 0 0 40 0 40 -40 0 -40 0 0 50 c0 28 -3 50 -7 49 -5
-1 -25 -6 -45 -11z"/>
<path d="M1334 420 c-11 -4 -26 -15 -33 -24 -18 -22 -31 -20 -31 4 0 16 -7 20
-35 20 l-35 0 0 -200 0 -200 45 0 45 0 0 139 c0 154 6 171 60 171 30 0 40 15
40 60 0 30 -22 42 -56 30z"/>
<path d="M1764 416 c-70 -32 -107 -143 -86 -257 17 -95 54 -136 129 -146 38
-5 104 8 132 26 21 14 -5 75 -28 66 -9 -4 -32 -9 -52 -12 -44 -6 -87 27 -91
72 l-3 30 99 3 98 3 -4 79 c-3 73 -6 82 -33 110 -37 37 -111 49 -161 26z m100
-88 c9 -12 16 -33 16 -45 0 -21 -4 -23 -55 -23 -51 0 -55 2 -55 23 0 33 28 67
55 67 13 0 31 -10 39 -22z"/>
<path d="M2070 412 c-27 -13 -38 -27 -49 -60 -20 -66 -1 -106 77 -160 63 -44
76 -68 47 -92 -15 -12 -60 -10 -96 5 -12 5 -20 -2 -28 -26 -6 -18 -11 -35 -11
-40 0 -13 110 -31 146 -24 58 10 86 43 92 106 4 49 1 59 -23 87 -15 18 -41 40
-57 48 -51 26 -70 51 -57 75 10 19 17 20 64 14 l53 -6 7 31 c8 38 7 40 -47 51
-63 12 -79 11 -118 -9z"/>
<path d="M2400 423 c-14 -2 -40 -9 -58 -15 -30 -9 -33 -13 -27 -37 9 -38 15
-41 64 -30 54 12 79 4 91 -27 14 -37 3 -51 -46 -58 -97 -13 -134 -48 -134
-127 0 -43 14 -77 39 -96 26 -20 95 -16 124 7 31 25 33 25 40 0 4 -15 14 -20
39 -20 l33 0 -1 162 c0 191 -9 220 -72 237 -38 11 -48 11 -92 4z m78 -256 c4
-37 -23 -67 -58 -67 -43 0 -54 46 -19 81 30 30 73 23 77 -14z"/>
<path d="M2775 415 c-16 -9 -35 -23 -42 -32 -10 -13 -13 -12 -19 11 -5 22 -12
26 -40 26 l-34 0 0 -200 0 -200 45 0 45 0 0 143 c0 127 2 146 18 160 22 20 53
22 70 5 8 -8 12 -58 12 -160 l0 -148 50 0 50 0 0 143 c-1 156 -9 210 -37 239
-27 26 -81 32 -118 13z"/>
<path d="M3071 412 c-48 -24 -69 -57 -83 -130 -14 -73 0 -171 30 -212 30 -41
80 -62 135 -56 98 11 137 70 137 209 0 66 -5 92 -22 127 -38 74 -123 101 -197
62z m89 -72 c24 -13 40 -63 39 -124 -1 -72 -11 -98 -42 -116 -25 -14 -28 -13
-49 8 -20 19 -24 35 -27 107 -3 79 -2 85 23 109 28 29 30 30 56 16z"/>
</g>
</svg>
