<?xml version="1.0"?>
<svg xmlns="http://www.w3.org/2000/svg" xmlns:xlink="http://www.w3.org/1999/xlink" xmlns:svgjs="http://svgjs.com/svgjs" version="1.1" width="512" height="512" x="0" y="0" viewBox="0 0 32 32" style="enable-background:new 0 0 512 512" xml:space="preserve" class=""><g><path xmlns="http://www.w3.org/2000/svg" d="m26 32h-20c-3.314 0-6-2.686-6-6v-20c0-3.314 2.686-6 6-6h20c3.314 0 6 2.686 6 6v20c0 3.314-2.686 6-6 6z" fill="#fff9dd" data-original="#e3f8fa" style="" class=""/><path xmlns="http://www.w3.org/2000/svg" d="m19 14c-2.757 0-5 2.243-5 5s2.243 5 5 5 5-2.243 5-5-2.243-5-5-5zm2 5.667h-1.333v1.333c0 .368-.299.667-.667.667s-.667-.299-.667-.667v-1.333h-1.333c-.368 0-.667-.299-.667-.667s.299-.667.667-.667h1.333v-1.333c0-.368.299-.667.667-.667s.667.299.667.667v1.333h1.333c.368 0 .667.299.667.667s-.299.667-.667.667z" fill="#ffd200" data-original="#26c6da" style="" class=""/><path xmlns="http://www.w3.org/2000/svg" d="m16 11.13c0 .153-.101.285-.24.33l-3.238 1.061-1.061 3.238c-.045.14-.178.241-.331.241-.15 0-.275-.094-.323-.223l-2.783-7.304c-.017-.038-.024-.08-.024-.125 0-.192.156-.348.348-.348.045 0 .087.007.125.024l7.304 2.783c.129.049.223.174.223.323z" fill="#ffe777" data-original="#8ce1eb" style="" class=""/></g></svg>
