<svg enable-background="new 0 0 32 32" height="512" viewBox="0 0 32 32" width="512" xmlns="http://www.w3.org/2000/svg"><g id="BG"><path d="m26 32h-20c-3.314 0-6-2.686-6-6v-20c0-3.314 2.686-6 6-6h20c3.314 0 6 2.686 6 6v20c0 3.314-2.686 6-6 6z" fill="#fff9dd"/></g><g id="bold"><path d="m19.5 8h-.833-5.333-.834c-1.011 0-1.833.822-1.833 1.833v12.333c0 1.011.822 1.833 1.833 1.833h7c1.011 0 1.833-.822 1.833-1.833v-12.333c0-1.011-.822-1.833-1.833-1.833zm.5 14c0 .368-.298.667-.667.667h-6.667c-.368 0-.666-.299-.666-.667v-12c0-.368.298-.667.667-.667h.333c.368 0 .667.298.667.667 0 .368.298.667.667.667h3.333c.368 0 .667-.298.667-.667 0-.368.298-.667.667-.667h.333c.368 0 .666.299.666.667z" fill="#ffd200"/></g></svg>