<?xml version="1.0"?>
<svg xmlns="http://www.w3.org/2000/svg" xmlns:xlink="http://www.w3.org/1999/xlink" xmlns:svgjs="http://svgjs.com/svgjs" version="1.1" width="512" height="512" x="0" y="0" viewBox="0 0 32 32" style="enable-background:new 0 0 512 512" xml:space="preserve" class=""><g><path xmlns="http://www.w3.org/2000/svg" d="m26 32h-20c-3.314 0-6-2.686-6-6v-20c0-3.314 2.686-6 6-6h20c3.314 0 6 2.686 6 6v20c0 3.314-2.686 6-6 6z" fill="#fcfcdc" data-original="#ffe6e2" style="" class=""/><path xmlns="http://www.w3.org/2000/svg" d="m14.667 8 6.666 2.667-6.666 2.666-6.667-2.666z" fill="#fcd404" data-original="#fc573b" style="" class=""/><path xmlns="http://www.w3.org/2000/svg" d="m14 14.503-6-2.4v6.564c0 .14.087.264.218.313l5.782 2.129z" fill="#fcd404" data-original="#fc573b" style="" class=""/><path xmlns="http://www.w3.org/2000/svg" d="m15.813 23.854c-.118-.118-.169-.288-.137-.451l.447-2.234c.02-.097.067-.186.137-.256l4.915-4.915c.441-.441 1.159-.44 1.6 0l.894.894c.441.441.441 1.159 0 1.601l-4.915 4.915c-.07.07-.159.118-.255.137l-2.234.447c-.17.032-.337-.023-.452-.138z" fill="#fce474" data-original="#fd907e" style="" class=""/><path xmlns="http://www.w3.org/2000/svg" d="m20.232 15.055c.316-.315.699-.516 1.102-.624v-2.328l-6 2.4v5.451z" fill="#fcd404" data-original="#fc573b" style="" class=""/></g></svg>
