<?xml version="1.0"?>
<svg xmlns="http://www.w3.org/2000/svg" xmlns:xlink="http://www.w3.org/1999/xlink" xmlns:svgjs="http://svgjs.com/svgjs" version="1.1" width="512" height="512" x="0" y="0" viewBox="0 0 32 32" style="enable-background:new 0 0 512 512" xml:space="preserve" class=""><g><path xmlns="http://www.w3.org/2000/svg" d="m26 32h-20c-3.314 0-6-2.686-6-6v-20c0-3.314 2.686-6 6-6h20c3.314 0 6 2.686 6 6v20c0 3.314-2.686 6-6 6z" fill="#fff9dd" data-original="#ffe6e2" style="" class=""/><g xmlns="http://www.w3.org/2000/svg" fill="#fd907e"><path d="m21 21.667h-2c-.276 0-.5-.224-.5-.5v-.971c0-.271-.161-.495-.297-.634-.565-.583-.807-1.38-.662-2.186.18-1.002 1.005-1.826 2.007-2.003.739-.133 1.49.067 2.058.544s.894 1.175.894 1.916c0 .668-.263 1.296-.741 1.767-.118.117-.259.304-.259.538v1.028c0 .277-.224.501-.5.501z" fill="#ffe777" data-original="#fd907e" style="" class=""/><path d="m23.5 24h-7c-.276 0-.5-.224-.5-.5v-1.245c0-.587.439-1.085 1.022-1.158l2.082-.26 1.729-.004 2.145.264c.583.073 1.022.571 1.022 1.158v1.245c0 .276-.224.5-.5.5z" fill="#ffe777" data-original="#fd907e" style="" class=""/><path d="m16.167 9.333h-.733c-.221-.766-.927-1.333-1.767-1.333s-1.547.567-1.767 1.333h-.733c-.273 0-.5.227-.5.5v1c0 .64.527 1.167 1.167 1.167h3.666c.64 0 1.167-.527 1.167-1.167v-1c0-.273-.227-.5-.5-.5z" fill="#ffe777" data-original="#fd907e" style="" class=""/></g><path xmlns="http://www.w3.org/2000/svg" d="m17.5 10h-.167v.833c0 1.013-.82 1.833-1.833 1.833h-3.667c-1.013 0-1.833-.82-1.833-1.833v-.833h-.167c-1.013 0-1.833.82-1.833 1.833v8.333c0 1.014.82 1.834 1.833 1.834h4.847c.113-1.093.94-2 2.033-2.2-.093-.147-.173-.307-.24-.467h-5.973c-.273 0-.5-.227-.5-.5s.227-.5.5-.5h5.7c-.053-.38-.047-.773.02-1.167h-5.72c-.273 0-.5-.227-.5-.5s.227-.5.5-.5h6.053c.527-1.08 1.56-1.893 2.76-2.107h.02v-2.227c0-1.012-.82-1.832-1.833-1.832zm-.667 5h-6.333c-.273 0-.5-.227-.5-.5s.227-.5.5-.5h6.333c.273 0 .5.227.5.5s-.226.5-.5.5z" fill="#ffd200" data-original="#fc573b" style="" class=""/></g></svg>
